<svg xmlns="http://www.w3.org/2000/svg" xmlns:xlink="http://www.w3.org/1999/xlink" version="1.1" x="0px" y="0px" viewBox="0 0 100 125" enable-background="new 0 0 100 100" xml:space="preserve"><g><path fill="#000000" d="M49.821,40.226c4.962,0,9.195,3.062,10.952,7.393h24.869c-2.191-17.852-17.377-31.685-35.821-31.685   S16.191,29.768,14,47.619h24.869C40.626,43.288,44.859,40.226,49.821,40.226z"/></g><g><path fill="#000000" d="M49.82,88.04c-18.09,0-33.393-13.538-35.596-31.489c-0.045-0.359,0.067-0.72,0.309-0.993   c0.24-0.272,0.584-0.428,0.948-0.428h23.84c0.517,0,0.98,0.312,1.176,0.792c1.55,3.824,5.208,6.297,9.322,6.297   c4.112,0,7.773-2.473,9.327-6.3c0.193-0.478,0.658-0.79,1.173-0.79h23.84c0.364,0,0.708,0.156,0.948,0.428   c0.243,0.272,0.354,0.634,0.309,0.993C83.215,74.502,67.91,88.04,49.82,88.04z M16.944,57.665   C19.603,73.633,33.49,85.505,49.82,85.505s30.219-11.872,32.878-27.841H61.142c-2.107,4.334-6.463,7.089-11.322,7.089   c-4.862,0-9.216-2.755-11.32-7.089H16.944z"/></g><g><circle fill="#000000" cx="49.821" cy="51.542" r="6.061"/></g></svg>